<svg
  width="228"
  height="257"
  viewBox="0 0 228 257"
  fill="none"
  xmlns="http://www.w3.org/2000/svg"
>
  <path
    d="M103.15 2.90972L10.86 56.0897C7.55973 57.9928 4.81862 60.7312 2.91227 64.0296C1.00591 67.3279 0.00149616 71.0701 0 74.8797L0 181.25C0.0054753 185.053 1.01194 188.788 2.91824 192.08C4.82455 195.371 7.56355 198.102 10.86 200L103.15 253.19C106.455 255.091 110.202 256.092 114.015 256.092C117.828 256.092 121.575 255.091 124.88 253.19L217.17 200C220.461 198.099 223.194 195.365 225.095 192.074C226.996 188.783 227.998 185.05 228 181.25V74.8797C227.999 71.0701 226.994 67.3279 225.088 64.0296C223.181 60.7312 220.44 57.9928 217.14 56.0897L124.88 2.90972C121.576 1.00349 117.829 0 114.015 0C110.201 0 106.454 1.00349 103.15 2.90972V2.90972Z"
    fill="#FAFBFB"
  />
  <path
    d="M114.02 13.9697L15.03 71.0097V185.11L114.02 242.16L213 185.11V71.0097L114.02 13.9697Z"
    fill="#2C2C2C"
  />
  <path
    fill-rule="evenodd"
    clip-rule="evenodd"
    d="M114.02 13.6812L213.25 70.8652V185.254L114.02 242.448L14.78 185.254V70.8652L114.02 13.6812ZM15.28 71.1542V184.965L114.02 241.871L212.75 184.965V71.1542L114.02 14.2583L15.28 71.1542Z"
    fill="#48BA86"
  />
  <path
    d="M43.43 87.6097L114.14 128.03V46.4997L43.43 87.2497V87.6097Z"
    fill="#D3EBE0"
  />
  <path
    d="M114.14 209.56L114.19 209.59L184.94 168.81V168.51L114.14 128.03V209.56Z"
    fill="#5EBF94"
  />
  <path d="M43.43 168.75L114.14 128.03L43.43 87.6097V168.75Z" fill="#48BA86" />
  <path
    d="M114.14 209.56V128.03L43.43 168.75V168.81L114.14 209.56Z"
    fill="#ADDBC8"
  />
  <path 
    d="M114.14 46.4697L184.98 87.2297L114.14 128.08V46.4697Z"
    fill="#86CCAC"
  />
</svg>
