<svg
  width="1920"
  height="1080"
  viewBox="0 0 1920 1080"
  fill="none"
  xmlns="http://www.w3.org/2000/svg"
>
  <g clip-path="url(#clip0)">
    <rect width="1920" height="1080" fill="#1E1E1E" />
    <rect width="1920" height="1081" fill="#1E1E1E" />
    <g clip-path="url(#clip1)">
      <path
        d="M10.5 133C14.6421 133 18 129.642 18 125.5C18 121.358 14.6421 118 10.5 118C6.35786 118 3 121.358 3 125.5C3 129.642 6.35786 133 10.5 133Z"
        fill="#303030"
      />
      <path
        d="M57.5 133C61.6421 133 65 129.642 65 125.5C65 121.358 61.6421 118 57.5 118C53.3579 118 50 121.358 50 125.5C50 129.642 53.3579 133 57.5 133Z"
        fill="#303030"
      />
      <path
        d="M104.5 133C108.642 133 112 129.642 112 125.5C112 121.358 108.642 118 104.5 118C100.358 118 97 121.358 97 125.5C97 129.642 100.358 133 104.5 133Z"
        fill="#303030"
      />
      <path
        d="M151.5 133C155.642 133 159 129.642 159 125.5C159 121.358 155.642 118 151.5 118C147.358 118 144 121.358 144 125.5C144 129.642 147.358 133 151.5 133Z"
        fill="#303030"
      />
      <path
        d="M198.5 133C202.642 133 206 129.642 206 125.5C206 121.358 202.642 118 198.5 118C194.358 118 191 121.358 191 125.5C191 129.642 194.358 133 198.5 133Z"
        fill="#303030"
      />
      <path
        d="M245.5 133C249.642 133 253 129.642 253 125.5C253 121.358 249.642 118 245.5 118C241.358 118 238 121.358 238 125.5C238 129.642 241.358 133 245.5 133Z"
        fill="#303030"
      />
      <path
        d="M292.5 133C296.642 133 300 129.642 300 125.5C300 121.358 296.642 118 292.5 118C288.358 118 285 121.358 285 125.5C285 129.642 288.358 133 292.5 133Z"
        fill="#303030"
      />
      <path
        d="M339.5 133C343.642 133 347 129.642 347 125.5C347 121.358 343.642 118 339.5 118C335.358 118 332 121.358 332 125.5C332 129.642 335.358 133 339.5 133Z"
        fill="#303030"
      />
      <path
        d="M10.5 180C14.6421 180 18 176.642 18 172.5C18 168.358 14.6421 165 10.5 165C6.35786 165 3 168.358 3 172.5C3 176.642 6.35786 180 10.5 180Z"
        fill="#303030"
      />
      <path
        d="M57.5 180C61.6421 180 65 176.642 65 172.5C65 168.358 61.6421 165 57.5 165C53.3579 165 50 168.358 50 172.5C50 176.642 53.3579 180 57.5 180Z"
        fill="#303030"
      />
      <path
        d="M104.5 180C108.642 180 112 176.642 112 172.5C112 168.358 108.642 165 104.5 165C100.358 165 97 168.358 97 172.5C97 176.642 100.358 180 104.5 180Z"
        fill="#303030"
      />
      <path
        d="M151.5 180C155.642 180 159 176.642 159 172.5C159 168.358 155.642 165 151.5 165C147.358 165 144 168.358 144 172.5C144 176.642 147.358 180 151.5 180Z"
        fill="#303030"
      />
      <path
        d="M198.5 180C202.642 180 206 176.642 206 172.5C206 168.358 202.642 165 198.5 165C194.358 165 191 168.358 191 172.5C191 176.642 194.358 180 198.5 180Z"
        fill="#303030"
      />
      <path
        d="M245.5 180C249.642 180 253 176.642 253 172.5C253 168.358 249.642 165 245.5 165C241.358 165 238 168.358 238 172.5C238 176.642 241.358 180 245.5 180Z"
        fill="#303030"
      />
      <path
        d="M292.5 180C296.642 180 300 176.642 300 172.5C300 168.358 296.642 165 292.5 165C288.358 165 285 168.358 285 172.5C285 176.642 288.358 180 292.5 180Z"
        fill="#303030"
      />
      <path
        d="M339.5 180C343.642 180 347 176.642 347 172.5C347 168.358 343.642 165 339.5 165C335.358 165 332 168.358 332 172.5C332 176.642 335.358 180 339.5 180Z"
        fill="#303030"
      />
      <path
        d="M10.5 227C14.6421 227 18 223.642 18 219.5C18 215.358 14.6421 212 10.5 212C6.35786 212 3 215.358 3 219.5C3 223.642 6.35786 227 10.5 227Z"
        fill="#303030"
      />
      <path
        d="M57.5 227C61.6421 227 65 223.642 65 219.5C65 215.358 61.6421 212 57.5 212C53.3579 212 50 215.358 50 219.5C50 223.642 53.3579 227 57.5 227Z"
        fill="#303030"
      />
      <path
        d="M104.5 227C108.642 227 112 223.642 112 219.5C112 215.358 108.642 212 104.5 212C100.358 212 97 215.358 97 219.5C97 223.642 100.358 227 104.5 227Z"
        fill="#303030"
      />
      <path
        d="M151.5 227C155.642 227 159 223.642 159 219.5C159 215.358 155.642 212 151.5 212C147.358 212 144 215.358 144 219.5C144 223.642 147.358 227 151.5 227Z"
        fill="#303030"
      />
      <path
        d="M198.5 227C202.642 227 206 223.642 206 219.5C206 215.358 202.642 212 198.5 212C194.358 212 191 215.358 191 219.5C191 223.642 194.358 227 198.5 227Z"
        fill="#303030"
      />
      <path
        d="M245.5 227C249.642 227 253 223.642 253 219.5C253 215.358 249.642 212 245.5 212C241.358 212 238 215.358 238 219.5C238 223.642 241.358 227 245.5 227Z"
        fill="#303030"
      />
      <path
        d="M292.5 227C296.642 227 300 223.642 300 219.5C300 215.358 296.642 212 292.5 212C288.358 212 285 215.358 285 219.5C285 223.642 288.358 227 292.5 227Z"
        fill="#303030"
      />
      <path
        d="M339.5 227C343.642 227 347 223.642 347 219.5C347 215.358 343.642 212 339.5 212C335.358 212 332 215.358 332 219.5C332 223.642 335.358 227 339.5 227Z"
        fill="#303030"
      />
      <path
        d="M10.5 274C14.6421 274 18 270.642 18 266.5C18 262.358 14.6421 259 10.5 259C6.35786 259 3 262.358 3 266.5C3 270.642 6.35786 274 10.5 274Z"
        fill="#303030"
      />
      <path
        d="M57.5 274C61.6421 274 65 270.642 65 266.5C65 262.358 61.6421 259 57.5 259C53.3579 259 50 262.358 50 266.5C50 270.642 53.3579 274 57.5 274Z"
        fill="#303030"
      />
      <path
        d="M104.5 274C108.642 274 112 270.642 112 266.5C112 262.358 108.642 259 104.5 259C100.358 259 97 262.358 97 266.5C97 270.642 100.358 274 104.5 274Z"
        fill="#303030"
      />
      <path
        d="M151.5 274C155.642 274 159 270.642 159 266.5C159 262.358 155.642 259 151.5 259C147.358 259 144 262.358 144 266.5C144 270.642 147.358 274 151.5 274Z"
        fill="#303030"
      />
      <path
        d="M198.5 274C202.642 274 206 270.642 206 266.5C206 262.358 202.642 259 198.5 259C194.358 259 191 262.358 191 266.5C191 270.642 194.358 274 198.5 274Z"
        fill="#303030"
      />
      <path
        d="M245.5 274C249.642 274 253 270.642 253 266.5C253 262.358 249.642 259 245.5 259C241.358 259 238 262.358 238 266.5C238 270.642 241.358 274 245.5 274Z"
        fill="#303030"
      />
      <path
        d="M292.5 274C296.642 274 300 270.642 300 266.5C300 262.358 296.642 259 292.5 259C288.358 259 285 262.358 285 266.5C285 270.642 288.358 274 292.5 274Z"
        fill="#303030"
      />
      <path
        d="M339.5 274C343.642 274 347 270.642 347 266.5C347 262.358 343.642 259 339.5 259C335.358 259 332 262.358 332 266.5C332 270.642 335.358 274 339.5 274Z"
        fill="#303030"
      />
      <path
        d="M10.5 321C14.6421 321 18 317.642 18 313.5C18 309.358 14.6421 306 10.5 306C6.35786 306 3 309.358 3 313.5C3 317.642 6.35786 321 10.5 321Z"
        fill="#303030"
      />
      <path
        d="M57.5 321C61.6421 321 65 317.642 65 313.5C65 309.358 61.6421 306 57.5 306C53.3579 306 50 309.358 50 313.5C50 317.642 53.3579 321 57.5 321Z"
        fill="#303030"
      />
      <path
        d="M104.5 321C108.642 321 112 317.642 112 313.5C112 309.358 108.642 306 104.5 306C100.358 306 97 309.358 97 313.5C97 317.642 100.358 321 104.5 321Z"
        fill="#303030"
      />
      <path
        d="M151.5 321C155.642 321 159 317.642 159 313.5C159 309.358 155.642 306 151.5 306C147.358 306 144 309.358 144 313.5C144 317.642 147.358 321 151.5 321Z"
        fill="#303030"
      />
      <path
        d="M198.5 321C202.642 321 206 317.642 206 313.5C206 309.358 202.642 306 198.5 306C194.358 306 191 309.358 191 313.5C191 317.642 194.358 321 198.5 321Z"
        fill="#303030"
      />
      <path
        d="M245.5 321C249.642 321 253 317.642 253 313.5C253 309.358 249.642 306 245.5 306C241.358 306 238 309.358 238 313.5C238 317.642 241.358 321 245.5 321Z"
        fill="#303030"
      />
      <path
        d="M292.5 321C296.642 321 300 317.642 300 313.5C300 309.358 296.642 306 292.5 306C288.358 306 285 309.358 285 313.5C285 317.642 288.358 321 292.5 321Z"
        fill="#303030"
      />
      <path
        d="M339.5 321C343.642 321 347 317.642 347 313.5C347 309.358 343.642 306 339.5 306C335.358 306 332 309.358 332 313.5C332 317.642 335.358 321 339.5 321Z"
        fill="#303030"
      />
      <path
        d="M10.5 368C14.6421 368 18 364.642 18 360.5C18 356.358 14.6421 353 10.5 353C6.35786 353 3 356.358 3 360.5C3 364.642 6.35786 368 10.5 368Z"
        fill="#303030"
      />
      <path
        d="M57.5 368C61.6421 368 65 364.642 65 360.5C65 356.358 61.6421 353 57.5 353C53.3579 353 50 356.358 50 360.5C50 364.642 53.3579 368 57.5 368Z"
        fill="#303030"
      />
      <path
        d="M104.5 368C108.642 368 112 364.642 112 360.5C112 356.358 108.642 353 104.5 353C100.358 353 97 356.358 97 360.5C97 364.642 100.358 368 104.5 368Z"
        fill="#303030"
      />
      <path
        d="M151.5 368C155.642 368 159 364.642 159 360.5C159 356.358 155.642 353 151.5 353C147.358 353 144 356.358 144 360.5C144 364.642 147.358 368 151.5 368Z"
        fill="#303030"
      />
      <path
        d="M198.5 368C202.642 368 206 364.642 206 360.5C206 356.358 202.642 353 198.5 353C194.358 353 191 356.358 191 360.5C191 364.642 194.358 368 198.5 368Z"
        fill="#303030"
      />
      <path
        d="M245.5 368C249.642 368 253 364.642 253 360.5C253 356.358 249.642 353 245.5 353C241.358 353 238 356.358 238 360.5C238 364.642 241.358 368 245.5 368Z"
        fill="#303030"
      />
      <path
        d="M292.5 368C296.642 368 300 364.642 300 360.5C300 356.358 296.642 353 292.5 353C288.358 353 285 356.358 285 360.5C285 364.642 288.358 368 292.5 368Z"
        fill="#303030"
      />
      <path
        d="M339.5 368C343.642 368 347 364.642 347 360.5C347 356.358 343.642 353 339.5 353C335.358 353 332 356.358 332 360.5C332 364.642 335.358 368 339.5 368Z"
        fill="#303030"
      />
      <path
        d="M400 828.469C400 830.347 399.359 832.169 398.184 833.633C379.171 857.406 363.705 864.527 344.797 858.233C335.342 855.081 329.089 846.997 323.044 839.188C312.163 825.131 304.553 816.857 285.972 823.588C280.093 825.718 278.41 829.283 275.442 836.499C271.781 845.408 266.76 857.612 247.629 862.31C224.506 867.99 213.355 851.045 205.209 838.675C198.642 828.695 194.18 822.602 187.599 822.119C167.899 820.659 165.499 826.466 156.587 848.072L155.937 849.641C155.089 851.658 153.477 853.257 151.453 854.089C149.43 854.921 147.159 854.919 145.138 854.084C143.116 853.248 141.507 851.646 140.662 849.628C139.817 847.609 139.805 845.339 140.628 843.312L141.278 841.752C150.154 820.241 157.161 803.252 188.824 805.6C204.006 806.724 211.994 818.857 219.04 829.567C228.186 843.46 232.975 848.855 243.685 846.224C254.642 843.536 256.823 838.23 260.127 830.198C263.327 822.417 267.306 812.74 280.327 808.019C311.203 796.829 325.616 815.453 336.142 829.051C340.883 835.177 345.364 840.962 350.034 842.516C358.288 845.266 367.197 845.868 385.252 823.291C386.325 821.951 387.788 820.978 389.438 820.506C391.088 820.034 392.845 820.085 394.464 820.654C396.083 821.223 397.486 822.281 398.478 823.682C399.471 825.082 400.004 826.757 400.003 828.473L400 828.469Z"
        fill="#303030"
      />
      <path
        d="M400 758.933C400 760.812 399.359 762.635 398.184 764.101C379.171 787.87 363.705 794.99 344.797 788.694C335.342 785.542 329.089 777.462 323.044 769.649C312.163 755.596 304.553 747.318 285.972 754.049C280.093 756.183 278.41 759.743 275.442 766.96C271.781 775.873 266.76 788.073 247.629 792.771C224.506 798.451 213.355 781.506 205.209 769.136C198.642 759.16 194.18 753.068 187.599 752.579C167.899 751.119 165.499 756.927 156.587 778.533L155.937 780.102C155.098 782.132 153.487 783.746 151.459 784.588C149.43 785.431 147.15 785.433 145.12 784.594C143.09 783.755 141.476 782.144 140.634 780.116C139.791 778.087 139.789 775.807 140.628 773.777L141.278 772.217C150.154 750.706 157.161 733.717 188.824 736.065C204.006 737.184 211.994 749.322 219.04 760.027C228.186 773.919 232.975 779.32 243.685 776.688C254.642 773.995 256.823 768.688 260.127 760.658C263.327 752.882 267.306 743.2 280.327 738.483C311.203 727.289 325.616 745.913 336.142 759.511C340.883 765.637 345.364 771.422 350.034 772.981C358.288 775.731 367.197 776.328 385.252 753.755C386.324 752.415 387.787 751.44 389.437 750.967C391.087 750.494 392.843 750.545 394.463 751.114C396.083 751.682 397.486 752.74 398.478 754.14C399.471 755.541 400.004 757.215 400.003 758.932L400 758.933Z"
        fill="#303030"
      />
      <path
        d="M1482 850H1780V879C1780 905.522 1769.46 930.957 1750.71 949.711C1731.96 968.464 1706.52 979 1680 979H1382V950C1382 923.478 1392.54 898.043 1411.29 879.289C1430.04 860.536 1455.48 850 1482 850V850Z"
        fill="#303030"
      />
      <path
        d="M666 93C736.692 93 794 35.4686 794 -35.5C794 -106.469 736.692 -164 666 -164C595.308 -164 538 -106.469 538 -35.5C538 35.4686 595.308 93 666 93Z"
        fill="#303030"
      />
      <path
        d="M2013.66 193.225H1833.94C1828.19 195.157 1822.52 197.245 1816.94 199.531H2030.66C2025.08 197.245 2019.41 195.153 2013.66 193.225Z"
        fill="#303030"
      />
      <path
        d="M2057.41 212.151H1790.19C1786.45 214.172 1782.78 216.281 1779.14 218.457H2068.46C2064.82 216.282 2061.14 214.18 2057.41 212.151Z"
        fill="#303030"
      />
      <path
        d="M2087.6 231.074H1759.99C1757.12 233.132 1754.29 235.227 1751.5 237.388H2096.09C2093.31 235.231 2090.47 233.136 2087.6 231.074Z"
        fill="#303030"
      />
      <path
        d="M2111.3 250.004H1736.29C1733.98 252.062 1731.73 254.186 1729.5 256.318H2118.1C2115.86 254.186 2113.61 252.062 2111.3 250.004Z"
        fill="#303030"
      />
      <path
        d="M2130.58 268.931H1717.01C1715.1 271.004 1713.24 273.12 1711.39 275.245H2136.21C2134.36 273.12 2132.5 271.004 2130.58 268.931Z"
        fill="#303030"
      />
      <path
        d="M2146.59 287.855H1701C1699.38 289.942 1697.78 292.037 1696.23 294.161H2151.36C2149.81 292.039 2148.21 289.944 2146.59 287.855Z"
        fill="#303030"
      />
      <path
        d="M2160.06 306.784H1687.54C1686.17 308.879 1684.8 310.966 1683.5 313.098H2164.1C2162.8 310.966 2161.42 308.879 2160.06 306.784Z"
        fill="#303030"
      />
      <path
        d="M2171.43 325.71H1676.17C1675.04 327.79 1674 329.91 1672.92 332.024H2174.68C2173.59 329.914 2172.56 327.79 2171.43 325.71Z"
        fill="#303030"
      />
      <path
        d="M2180.74 344.637H1666.84C1665.89 346.746 1664.91 348.819 1664.01 350.951H2183.57C2182.68 348.819 2181.7 346.746 2180.74 344.637Z"
        fill="#303030"
      />
      <path
        d="M2188.54 363.563H1659.04C1658.28 365.643 1657.62 367.763 1656.91 369.877H2190.68C2189.97 367.767 2189.3 365.643 2188.54 363.563Z"
        fill="#303030"
      />
      <path
        d="M2194.63 382.497H1652.98C1652.38 384.592 1651.74 386.686 1651.18 388.803H2196.41C2195.86 386.686 2195.23 384.592 2194.63 382.497Z"
        fill="#303030"
      />
      <path
        d="M2199.39 401.418H1648.22C1647.77 403.513 1647.38 405.618 1646.98 407.732H2200.63C2200.22 405.618 2199.83 403.511 2199.39 401.418Z"
        fill="#303030"
      />
      <path
        d="M2202.72 420.343H1644.87C1644.57 422.438 1644.32 424.543 1644.07 426.657H2203.52C2203.27 424.547 2203.02 422.438 2202.72 420.343Z"
        fill="#303030"
      />
      <path
        d="M2204.73 439.269H1642.86C1642.71 441.378 1642.49 443.469 1642.38 445.583H2205.21C2205.1 443.466 2204.89 441.379 2204.73 439.269Z"
        fill="#303030"
      />
      <path
        d="M2205.59 460.3C2205.59 459.6 2205.55 458.906 2205.55 458.2H1642.06C1642.05 458.908 1642 459.6 1642 460.3C1642 461.716 1642.09 463.1 1642.11 464.512H2205.49C2205.51 463.1 2205.59 461.714 2205.59 460.3Z"
        fill="#303030"
      />
      <path
        d="M2205.05 477.129H1642.55C1642.67 479.238 1642.86 481.329 1643.03 483.435H2204.57C2204.74 481.333 2204.93 479.238 2205.05 477.129Z"
        fill="#303030"
      />
      <path
        d="M2203.25 496.056H1644.33C1644.6 498.156 1644.83 500.268 1645.13 502.362H2202.45C2202.77 500.268 2202.99 498.158 2203.25 496.056Z"
        fill="#303030"
      />
      <path
        d="M2200.25 514.975H1647.35C1647.76 517.092 1648.24 519.187 1648.7 521.289H2198.9C2199.36 519.187 2199.83 517.092 2200.25 514.975Z"
        fill="#303030"
      />
      <path
        d="M2195.82 533.909H1651.77C1652.35 536.019 1652.95 538.121 1653.57 540.215H2194.02C2194.64 538.121 2195.25 536.019 2195.82 533.909Z"
        fill="#303030"
      />
      <path
        d="M2189.97 552.828H1657.62C1658.36 554.945 1659.09 557.054 1659.87 559.142H2187.73C2188.51 557.054 2189.24 554.945 2189.97 552.828Z"
        fill="#303030"
      />
      <path
        d="M2182.65 571.754H1664.95C1665.86 573.878 1666.84 575.973 1667.8 578.068H2179.8C2180.76 575.973 2181.74 573.878 2182.65 571.754Z"
        fill="#303030"
      />
      <path
        d="M2173.6 590.688H1674C1675.11 592.797 1676.22 594.907 1677.38 596.994H2170.22C2171.38 594.907 2172.49 592.797 2173.6 590.688Z"
        fill="#303030"
      />
      <path
        d="M2162.75 609.615H1684.84C1686.17 611.732 1687.51 613.841 1688.89 615.921H2158.71C2160.09 613.841 2161.43 611.732 2162.75 609.615Z"
        fill="#303030"
      />
      <path
        d="M2149.87 628.541H1697.73C1699.32 630.68 1701 632.753 1702.65 634.847H2144.94C2146.6 632.75 2148.27 630.68 2149.87 628.541Z"
        fill="#303030"
      />
      <path
        d="M2134.39 647.46H1713.21C1715.11 649.599 1717.06 651.694 1719.02 653.774H2128.58C2130.54 651.694 2132.49 649.599 2134.39 647.46Z"
        fill="#303030"
      />
      <path
        d="M2115.89 666.387H1731.7C1734 668.533 1736.35 670.636 1738.72 672.701H2108.88C2111.25 670.636 2113.59 668.533 2115.89 666.387Z"
        fill="#303030"
      />
      <path
        d="M2093.41 685.32H1754.18C1757.05 687.489 1759.99 689.569 1762.95 691.626H2084.65C2087.61 689.568 2090.54 687.488 2093.41 685.32Z"
        fill="#303030"
      />
      <path
        d="M2064.8 704.247H1782.8C1786.58 706.438 1790.41 708.54 1794.3 710.553H2053.3C2057.19 708.54 2061.02 706.438 2064.8 704.247Z"
        fill="#303030"
      />
      <path
        d="M2025.32 723.173H1822.27C1828.16 725.445 1834.11 727.598 1840.18 729.479H2007.41C2013.48 727.598 2019.44 725.445 2025.32 723.173Z"
        fill="#303030"
      />
      <path
        d="M1325 292H1250V367H1325V292Z"
        stroke="#303030"
        stroke-width="12"
      />
      <path
        d="M1360 325H1285V400H1360V325Z"
        stroke="#303030"
        stroke-width="12"
      />
      <path
        d="M577.431 1058.1C569.632 1058.1 562.008 1055.79 555.522 1051.46C549.037 1047.12 543.982 1040.97 540.997 1033.76C538.011 1026.56 537.229 1018.63 538.75 1010.98C540.27 1003.33 544.025 996.302 549.54 990.787C555.054 985.271 562.08 981.515 569.729 979.993C577.378 978.471 585.306 979.252 592.512 982.236C599.717 985.22 605.876 990.274 610.209 996.759C614.542 1003.24 616.855 1010.87 616.855 1018.67C616.842 1029.12 612.685 1039.14 605.294 1046.53C597.904 1053.92 587.884 1058.08 577.431 1058.1V1058.1ZM577.431 991.847C572.128 991.846 566.943 993.418 562.533 996.364C558.123 999.31 554.685 1003.5 552.655 1008.4C550.624 1013.3 550.093 1018.69 551.126 1023.89C552.16 1029.09 554.714 1033.87 558.463 1037.62C562.213 1041.37 566.99 1043.93 572.192 1044.96C577.393 1046 582.785 1045.47 587.685 1043.44C592.585 1041.41 596.773 1037.97 599.721 1033.56C602.668 1029.15 604.241 1023.97 604.242 1018.67C604.236 1011.56 601.409 1004.74 596.383 999.712C591.356 994.684 584.541 991.855 577.431 991.847V991.847Z"
        fill="#303030"
      />
      <path
        d="M775.5 198.918L743.564 254H807.436L775.5 198.918ZM775.5 173L830 267H721L775.5 173Z"
        fill="#303030"
      />
    </g>
  </g>
  <defs>
    <clipPath id="clip0">
      <rect width="1920" height="1080" fill="white" />
    </clipPath>
    <clipPath id="clip1">
      <rect y="1" width="1920" height="1080" fill="white" />
    </clipPath>
  </defs>
</svg>
