<svg
  xmlns="http://www.w3.org/2000/svg"
  xmlns:xlink="http://www.w3.org/1999/xlink"
  width="1920"
  height="1080"
  viewBox="0 0 1920 1080"
>
  <defs>
    <clipPath id="a">
      <rect
        width="1920"
        height="1080"
        fill="#fff"
        stroke="#707070"
        stroke-width="1"
      />
    </clipPath>
  </defs>
  <g clip-path="url(#a)">
    <circle
      cx="7.5"
      cy="7.5"
      r="7.5"
      transform="translate(3 117)"
      fill="#303030"
    />
    <circle
      cx="7.5"
      cy="7.5"
      r="7.5"
      transform="translate(50 117)"
      fill="#303030"
    />
    <circle
      cx="7.5"
      cy="7.5"
      r="7.5"
      transform="translate(97 117)"
      fill="#303030"
    />
    <circle
      cx="7.5"
      cy="7.5"
      r="7.5"
      transform="translate(144 117)"
      fill="#303030"
    />
    <circle
      cx="7.5"
      cy="7.5"
      r="7.5"
      transform="translate(191 117)"
      fill="#303030"
    />
    <circle
      cx="7.5"
      cy="7.5"
      r="7.5"
      transform="translate(238 117)"
      fill="#303030"
    />
    <circle
      cx="7.5"
      cy="7.5"
      r="7.5"
      transform="translate(285 117)"
      fill="#303030"
    />
    <circle
      cx="7.5"
      cy="7.5"
      r="7.5"
      transform="translate(332 117)"
      fill="#303030"
    />
    <circle
      cx="7.5"
      cy="7.5"
      r="7.5"
      transform="translate(3 164)"
      fill="#303030"
    />
    <circle
      cx="7.5"
      cy="7.5"
      r="7.5"
      transform="translate(50 164)"
      fill="#303030"
    />
    <circle
      cx="7.5"
      cy="7.5"
      r="7.5"
      transform="translate(97 164)"
      fill="#303030"
    />
    <circle
      cx="7.5"
      cy="7.5"
      r="7.5"
      transform="translate(144 164)"
      fill="#303030"
    />
    <circle
      cx="7.5"
      cy="7.5"
      r="7.5"
      transform="translate(191 164)"
      fill="#303030"
    />
    <circle
      cx="7.5"
      cy="7.5"
      r="7.5"
      transform="translate(238 164)"
      fill="#303030"
    />
    <circle
      cx="7.5"
      cy="7.5"
      r="7.5"
      transform="translate(285 164)"
      fill="#303030"
    />
    <circle
      cx="7.5"
      cy="7.5"
      r="7.5"
      transform="translate(332 164)"
      fill="#303030"
    />
    <circle
      cx="7.5"
      cy="7.5"
      r="7.5"
      transform="translate(3 211)"
      fill="#303030"
    />
    <circle
      cx="7.5"
      cy="7.5"
      r="7.5"
      transform="translate(50 211)"
      fill="#303030"
    />
    <circle
      cx="7.5"
      cy="7.5"
      r="7.5"
      transform="translate(97 211)"
      fill="#303030"
    />
    <circle
      cx="7.5"
      cy="7.5"
      r="7.5"
      transform="translate(144 211)"
      fill="#303030"
    />
    <circle
      cx="7.5"
      cy="7.5"
      r="7.5"
      transform="translate(191 211)"
      fill="#303030"
    />
    <circle
      cx="7.5"
      cy="7.5"
      r="7.5"
      transform="translate(238 211)"
      fill="#303030"
    />
    <circle
      cx="7.5"
      cy="7.5"
      r="7.5"
      transform="translate(285 211)"
      fill="#303030"
    />
    <circle
      cx="7.5"
      cy="7.5"
      r="7.5"
      transform="translate(332 211)"
      fill="#303030"
    />
    <circle
      cx="7.5"
      cy="7.5"
      r="7.5"
      transform="translate(3 258)"
      fill="#303030"
    />
    <circle
      cx="7.5"
      cy="7.5"
      r="7.5"
      transform="translate(50 258)"
      fill="#303030"
    />
    <circle
      cx="7.5"
      cy="7.5"
      r="7.5"
      transform="translate(97 258)"
      fill="#303030"
    />
    <circle
      cx="7.5"
      cy="7.5"
      r="7.5"
      transform="translate(144 258)"
      fill="#303030"
    />
    <circle
      cx="7.5"
      cy="7.5"
      r="7.5"
      transform="translate(191 258)"
      fill="#303030"
    />
    <circle
      cx="7.5"
      cy="7.5"
      r="7.5"
      transform="translate(238 258)"
      fill="#303030"
    />
    <circle
      cx="7.5"
      cy="7.5"
      r="7.5"
      transform="translate(285 258)"
      fill="#303030"
    />
    <circle
      cx="7.5"
      cy="7.5"
      r="7.5"
      transform="translate(332 258)"
      fill="#303030"
    />
    <circle
      cx="7.5"
      cy="7.5"
      r="7.5"
      transform="translate(3 305)"
      fill="#303030"
    />
    <circle
      cx="7.5"
      cy="7.5"
      r="7.5"
      transform="translate(50 305)"
      fill="#303030"
    />
    <circle
      cx="7.5"
      cy="7.5"
      r="7.5"
      transform="translate(97 305)"
      fill="#303030"
    />
    <circle
      cx="7.5"
      cy="7.5"
      r="7.5"
      transform="translate(144 305)"
      fill="#303030"
    />
    <circle
      cx="7.5"
      cy="7.5"
      r="7.5"
      transform="translate(191 305)"
      fill="#303030"
    />
    <circle
      cx="7.5"
      cy="7.5"
      r="7.5"
      transform="translate(238 305)"
      fill="#303030"
    />
    <circle
      cx="7.5"
      cy="7.5"
      r="7.5"
      transform="translate(285 305)"
      fill="#303030"
    />
    <circle
      cx="7.5"
      cy="7.5"
      r="7.5"
      transform="translate(332 305)"
      fill="#303030"
    />
    <circle
      cx="7.5"
      cy="7.5"
      r="7.5"
      transform="translate(3 352)"
      fill="#303030"
    />
    <circle
      cx="7.5"
      cy="7.5"
      r="7.5"
      transform="translate(50 352)"
      fill="#303030"
    />
    <circle
      cx="7.5"
      cy="7.5"
      r="7.5"
      transform="translate(97 352)"
      fill="#303030"
    />
    <circle
      cx="7.5"
      cy="7.5"
      r="7.5"
      transform="translate(144 352)"
      fill="#303030"
    />
    <circle
      cx="7.5"
      cy="7.5"
      r="7.5"
      transform="translate(191 352)"
      fill="#303030"
    />
    <circle
      cx="7.5"
      cy="7.5"
      r="7.5"
      transform="translate(238 352)"
      fill="#303030"
    />
    <circle
      cx="7.5"
      cy="7.5"
      r="7.5"
      transform="translate(285 352)"
      fill="#303030"
    />
    <circle
      cx="7.5"
      cy="7.5"
      r="7.5"
      transform="translate(332 352)"
      fill="#303030"
    />
    <g transform="translate(-880.807 2510.406) rotate(-90)" opacity="0.08">
      <g transform="translate(1647.968 1020.807)">
        <path
          d="M1682.937,1280.807a8.251,8.251,0,0,1-5.164-1.816c-23.773-19.013-30.894-34.479-24.6-53.387,3.152-9.455,11.236-15.708,19.045-21.753,14.057-10.881,22.331-18.491,15.6-37.072-2.13-5.879-5.695-7.562-12.911-10.53-8.909-3.661-21.113-8.682-25.811-27.813-5.68-23.123,11.265-34.274,23.635-42.42,9.98-6.567,16.073-11.029,16.556-17.61,1.46-19.7-4.347-22.1-25.953-31.012l-1.569-.65a8.283,8.283,0,0,1,6.329-15.309l1.56.65c21.511,8.876,38.5,15.883,36.152,47.546-1.124,15.182-13.257,23.17-23.967,30.216-13.893,9.146-19.288,13.935-16.657,24.645,2.688,10.957,7.994,13.138,16.026,16.442,7.781,3.2,17.458,7.179,22.179,20.2,11.19,30.876-7.434,45.289-21.032,55.815-6.126,4.741-11.911,9.222-13.465,13.892-2.75,8.254-3.352,17.163,19.225,35.218a8.285,8.285,0,0,1-5.182,14.751Z"
          transform="translate(-1647.968 -1020.807)"
          fill="#fff"
        />
      </g>
      <g transform="translate(1717.508 1020.807)">
        <path
          d="M1697.6,1280.807a8.263,8.263,0,0,1-5.168-1.816c-23.769-19.013-30.889-34.479-24.593-53.387,3.152-9.455,11.232-15.708,19.045-21.753,14.053-10.881,22.331-18.491,15.6-37.072-2.134-5.879-5.694-7.562-12.911-10.53-8.913-3.661-21.113-8.682-25.811-27.813-5.68-23.123,11.265-34.274,23.635-42.42,9.976-6.567,16.068-11.029,16.557-17.61,1.46-19.7-4.348-22.1-25.954-31.012l-1.569-.65a8.282,8.282,0,0,1,6.325-15.309l1.56.65c21.511,8.876,38.5,15.883,36.152,47.546-1.119,15.182-13.257,23.17-23.962,30.216-13.892,9.146-19.293,13.935-16.661,24.645,2.693,10.957,8,13.138,16.03,16.442,7.776,3.2,17.458,7.179,22.175,20.2,11.194,30.876-7.43,45.289-21.028,55.815-6.126,4.741-11.911,9.222-13.47,13.892-2.75,8.254-3.347,17.163,19.226,35.218a8.283,8.283,0,0,1-5.177,14.751Z"
          transform="translate(-1662.635 -1020.807)"
          fill="#fff"
        />
      </g>
    </g>
    <path
      d="M100,0H398a0,0,0,0,1,0,0V29A100,100,0,0,1,298,129H0a0,0,0,0,1,0,0V100A100,100,0,0,1,100,0Z"
      transform="translate(1382 849)"
      fill="#303030"
    />
    <ellipse
      cx="128"
      cy="128.5"
      rx="128"
      ry="128.5"
      transform="translate(538 -165)"
      fill="#303030"
    />
    <g transform="translate(1105.812 170.453)">
      <g transform="translate(711.129 21.772)">
        <path
          d="M756.62,21.772H576.907c-5.753,1.932-11.425,4.02-17,6.306H773.621C768.046,25.792,762.373,23.7,756.62,21.772Z"
          transform="translate(-559.906 -21.772)"
          fill="#303030"
        />
      </g>
      <g transform="translate(673.328 40.698)">
        <path
          d="M833.05,24.338H565.83c-3.74,2.021-7.413,4.13-11.049,6.306H844.1Q838.645,27.381,833.05,24.338Z"
          transform="translate(-554.781 -24.338)"
          fill="#303030"
        />
      </g>
      <g transform="translate(645.69 59.625)">
        <path
          d="M887.137,26.9H559.523c-2.869,2.058-5.7,4.153-8.49,6.314H895.627C892.839,31.057,890.007,28.962,887.137,26.9Z"
          transform="translate(-551.034 -26.904)"
          fill="#303030"
        />
      </g>
      <g transform="translate(623.688 78.551)">
        <path
          d="M929.855,29.47H554.844c-2.308,2.058-4.558,4.182-6.793,6.314h388.6C934.413,33.652,932.164,31.528,929.855,29.47Z"
          transform="translate(-548.051 -29.47)"
          fill="#303030"
        />
      </g>
      <g transform="translate(605.573 97.478)">
        <path
          d="M964.787,32.036H551.223c-1.91,2.073-3.776,4.189-5.628,6.314H970.423C968.571,36.225,966.705,34.109,964.787,32.036Z"
          transform="translate(-545.595 -32.036)"
          fill="#303030"
        />
      </g>
      <g transform="translate(590.415 116.404)">
        <path
          d="M993.9,34.6H548.312c-1.615,2.087-3.216,4.182-4.772,6.306H998.675C997.119,38.784,995.525,36.689,993.9,34.6Z"
          transform="translate(-543.54 -34.602)"
          fill="#303030"
        />
      </g>
      <g transform="translate(577.685 135.331)">
        <path
          d="M1018.375,37.168H545.856c-1.365,2.095-2.736,4.182-4.042,6.314h480.6C1021.112,41.35,1019.74,39.263,1018.375,37.168Z"
          transform="translate(-541.814 -37.168)"
          fill="#303030"
        />
      </g>
      <g transform="translate(567.108 154.257)">
        <path
          d="M1038.892,39.734H543.633c-1.136,2.08-2.168,4.2-3.252,6.314h501.757C1041.053,43.938,1040.021,41.814,1038.892,39.734Z"
          transform="translate(-540.38 -39.734)"
          fill="#303030"
        />
      </g>
      <g transform="translate(558.205 173.184)">
        <path
          d="M1055.9,42.3h-513.9c-.952,2.109-1.933,4.182-2.833,6.314h519.564C1057.837,46.482,1056.856,44.409,1055.9,42.3Z"
          transform="translate(-539.173 -42.3)"
          fill="#303030"
        />
      </g>
      <g transform="translate(551.102 192.11)">
        <path
          d="M1069.84,44.866h-529.5c-.76,2.08-1.423,4.2-2.132,6.314h533.769C1071.263,49.07,1070.6,46.946,1069.84,44.866Z"
          transform="translate(-538.21 -44.866)"
          fill="#303030"
        />
      </g>
      <g transform="translate(545.371 211.044)">
        <path
          d="M1080.879,47.433H539.226c-.6,2.095-1.239,4.189-1.793,6.306h545.231C1082.111,51.622,1081.477,49.528,1080.879,47.433Z"
          transform="translate(-537.433 -47.433)"
          fill="#303030"
        />
      </g>
      <g transform="translate(541.167 229.963)">
        <path
          d="M1089.271,50H538.1c-.45,2.095-.841,4.2-1.232,6.314H1090.51C1090.1,54.2,1089.714,52.093,1089.271,50Z"
          transform="translate(-536.863 -49.998)"
          fill="#303030"
        />
      </g>
      <g transform="translate(538.261 248.89)">
        <path
          d="M1095.117,52.564H537.266c-.3,2.095-.546,4.2-.8,6.314h559.452C1095.67,56.768,1095.419,54.659,1095.117,52.564Z"
          transform="translate(-536.469 -52.564)"
          fill="#303030"
        />
      </g>
      <g transform="translate(536.572 267.816)">
        <path
          d="M1098.591,55.13H536.719c-.155,2.109-.369,4.2-.479,6.314h562.83C1098.959,59.327,1098.745,57.24,1098.591,55.13Z"
          transform="translate(-536.24 -55.13)"
          fill="#303030"
        />
      </g>
      <g transform="translate(536.188 286.743)">
        <path
          d="M1099.778,59.8c0-.7-.044-1.394-.044-2.1H536.247c-.007.708-.059,1.4-.059,2.1,0,1.416.089,2.8.111,4.212h563.375C1099.7,62.6,1099.778,61.214,1099.778,59.8Z"
          transform="translate(-536.188 -57.696)"
          fill="#303030"
        />
      </g>
      <g transform="translate(536.734 305.676)">
        <path
          d="M1098.768,60.263H536.262c.125,2.109.31,4.2.479,6.306h561.547C1098.457,64.467,1098.642,62.372,1098.768,60.263Z"
          transform="translate(-536.262 -60.263)"
          fill="#303030"
        />
      </g>
      <g transform="translate(538.526 324.603)">
        <path
          d="M1095.418,62.829H536.5c.266,2.1.494,4.212.8,6.306h557.32C1094.939,67.041,1095.16,64.931,1095.418,62.829Z"
          transform="translate(-536.505 -62.829)"
          fill="#303030"
        />
      </g>
      <g transform="translate(541.536 343.522)">
        <path
          d="M1089.815,65.394h-552.9c.413,2.117.885,4.212,1.35,6.314h550.2C1088.93,69.606,1089.395,67.511,1089.815,65.394Z"
          transform="translate(-536.913 -65.394)"
          fill="#303030"
        />
      </g>
      <g transform="translate(545.961 362.456)">
        <path
          d="M1081.564,67.961H537.513c.575,2.11,1.18,4.212,1.8,6.306h540.452C1080.384,72.173,1080.988,70.071,1081.564,67.961Z"
          transform="translate(-537.513 -67.961)"
          fill="#303030"
        />
      </g>
      <g transform="translate(551.81 381.375)">
        <path
          d="M1070.651,70.526H538.306c.737,2.117,1.468,4.226,2.25,6.314h527.854C1069.191,74.752,1069.921,72.643,1070.651,70.526Z"
          transform="translate(-538.306 -70.526)"
          fill="#303030"
        />
      </g>
      <g transform="translate(559.134 400.301)">
        <path
          d="M1057,73.092H539.3c.914,2.124,1.888,4.219,2.854,6.314h512C1055.115,77.311,1056.089,75.216,1057,73.092Z"
          transform="translate(-539.299 -73.092)"
          fill="#303030"
        />
      </g>
      <g transform="translate(568.185 419.235)">
        <path
          d="M1040.13,75.659h-499.6c1.107,2.109,2.22,4.219,3.378,6.306h492.841C1037.91,79.878,1039.024,77.768,1040.13,75.659Z"
          transform="translate(-540.526 -75.659)"
          fill="#303030"
        />
      </g>
      <g transform="translate(579.027 438.162)">
        <path
          d="M1019.907,78.225H542c1.328,2.117,2.67,4.226,4.05,6.306h469.821C1017.245,82.451,1018.588,80.342,1019.907,78.225Z"
          transform="translate(-541.996 -78.225)"
          fill="#303030"
        />
      </g>
      <g transform="translate(591.913 457.088)">
        <path
          d="M995.891,80.791H543.743c1.593,2.139,3.275,4.212,4.927,6.306H990.956C992.616,85,994.29,82.93,995.891,80.791Z"
          transform="translate(-543.743 -80.791)"
          fill="#303030"
        />
      </g>
      <g transform="translate(607.395 476.007)">
        <path
          d="M967.026,83.356H545.842c1.9,2.139,3.851,4.234,5.813,6.314H961.213C963.175,87.59,965.123,85.495,967.026,83.356Z"
          transform="translate(-545.842 -83.356)"
          fill="#303030"
        />
      </g>
      <g transform="translate(625.886 494.934)">
        <path
          d="M932.543,85.922H548.349c2.3,2.146,4.654,4.249,7.022,6.314H925.529C927.9,90.171,930.242,88.068,932.543,85.922Z"
          transform="translate(-548.349 -85.922)"
          fill="#303030"
        />
      </g>
      <g transform="translate(648.367 513.867)">
        <path
          d="M890.627,88.489H551.4c2.869,2.169,5.812,4.249,8.77,6.306h321.7C884.823,92.737,887.758,90.657,890.627,88.489Z"
          transform="translate(-551.397 -88.489)"
          fill="#303030"
        />
      </g>
      <g transform="translate(676.986 532.794)">
        <path
          d="M837.278,91.055h-282q5.665,3.286,11.5,6.306h259Q831.61,94.341,837.278,91.055Z"
          transform="translate(-555.277 -91.055)"
          fill="#303030"
        />
      </g>
      <g transform="translate(716.462 551.72)">
        <path
          d="M763.679,93.621H560.629c5.886,2.272,11.838,4.425,17.908,6.306H745.77C751.84,98.046,757.792,95.893,763.679,93.621Z"
          transform="translate(-560.629 -93.621)"
          fill="#303030"
        />
      </g>
    </g>
    <g
      transform="translate(1244 285)"
      fill="none"
      stroke="#303030"
      stroke-width="12"
    >
      <rect width="87" height="87" stroke="none" />
      <rect x="6" y="6" width="75" height="75" fill="none" />
    </g>
    <g
      transform="translate(1279 318)"
      fill="none"
      stroke="#303030"
      stroke-width="12"
    >
      <rect width="87" height="87" stroke="none" />
      <rect x="6" y="6" width="75" height="75" fill="none" />
    </g>
    <g transform="translate(538 978.234)">
      <path
        d="M579.041,106.195a39.431,39.431,0,1,1,39.424-39.431A39.479,39.479,0,0,1,579.041,106.195Zm0-66.25a26.815,26.815,0,1,0,26.811,26.819A26.842,26.842,0,0,0,579.041,39.945Z"
        transform="translate(-539.61 -27.332)"
        fill="#303030"
      />
    </g>
    <g transform="translate(721 172)" fill="none">
      <path d="M54.5,0,109,94H0Z" stroke="none" />
      <path
        d="M 54.5 25.91809844970703 L 22.56421661376953 81 L 86.43578338623047 81 L 54.5 25.91809844970703 M 54.5 0 L 109 94 L 0 94 L 54.5 0 Z"
        stroke="none"
        fill="#303030"
      />
    </g>
  </g>
</svg>
