<svg width="1920" height="1080" viewBox="0 0 1920 1080" fill="none" xmlns="http://www.w3.org/2000/svg">
<g clip-path="url(#clip0)">
<path d="M10.5 132C14.6421 132 18 128.642 18 124.5C18 120.358 14.6421 117 10.5 117C6.35786 117 3 120.358 3 124.5C3 128.642 6.35786 132 10.5 132Z" fill="#6F6F6F"/>
<path d="M57.5 132C61.6421 132 65 128.642 65 124.5C65 120.358 61.6421 117 57.5 117C53.3579 117 50 120.358 50 124.5C50 128.642 53.3579 132 57.5 132Z" fill="#6F6F6F"/>
<path d="M104.5 132C108.642 132 112 128.642 112 124.5C112 120.358 108.642 117 104.5 117C100.358 117 97 120.358 97 124.5C97 128.642 100.358 132 104.5 132Z" fill="#6F6F6F"/>
<path d="M151.5 132C155.642 132 159 128.642 159 124.5C159 120.358 155.642 117 151.5 117C147.358 117 144 120.358 144 124.5C144 128.642 147.358 132 151.5 132Z" fill="#6F6F6F"/>
<path d="M198.5 132C202.642 132 206 128.642 206 124.5C206 120.358 202.642 117 198.5 117C194.358 117 191 120.358 191 124.5C191 128.642 194.358 132 198.5 132Z" fill="#6F6F6F"/>
<path d="M245.5 132C249.642 132 253 128.642 253 124.5C253 120.358 249.642 117 245.5 117C241.358 117 238 120.358 238 124.5C238 128.642 241.358 132 245.5 132Z" fill="#6F6F6F"/>
<path d="M292.5 132C296.642 132 300 128.642 300 124.5C300 120.358 296.642 117 292.5 117C288.358 117 285 120.358 285 124.5C285 128.642 288.358 132 292.5 132Z" fill="#6F6F6F"/>
<path d="M339.5 132C343.642 132 347 128.642 347 124.5C347 120.358 343.642 117 339.5 117C335.358 117 332 120.358 332 124.5C332 128.642 335.358 132 339.5 132Z" fill="#6F6F6F"/>
<path d="M10.5 179C14.6421 179 18 175.642 18 171.5C18 167.358 14.6421 164 10.5 164C6.35786 164 3 167.358 3 171.5C3 175.642 6.35786 179 10.5 179Z" fill="#6F6F6F"/>
<path d="M57.5 179C61.6421 179 65 175.642 65 171.5C65 167.358 61.6421 164 57.5 164C53.3579 164 50 167.358 50 171.5C50 175.642 53.3579 179 57.5 179Z" fill="#6F6F6F"/>
<path d="M104.5 179C108.642 179 112 175.642 112 171.5C112 167.358 108.642 164 104.5 164C100.358 164 97 167.358 97 171.5C97 175.642 100.358 179 104.5 179Z" fill="#6F6F6F"/>
<path d="M151.5 179C155.642 179 159 175.642 159 171.5C159 167.358 155.642 164 151.5 164C147.358 164 144 167.358 144 171.5C144 175.642 147.358 179 151.5 179Z" fill="#6F6F6F"/>
<path d="M198.5 179C202.642 179 206 175.642 206 171.5C206 167.358 202.642 164 198.5 164C194.358 164 191 167.358 191 171.5C191 175.642 194.358 179 198.5 179Z" fill="#6F6F6F"/>
<path d="M245.5 179C249.642 179 253 175.642 253 171.5C253 167.358 249.642 164 245.5 164C241.358 164 238 167.358 238 171.5C238 175.642 241.358 179 245.5 179Z" fill="#6F6F6F"/>
<path d="M292.5 179C296.642 179 300 175.642 300 171.5C300 167.358 296.642 164 292.5 164C288.358 164 285 167.358 285 171.5C285 175.642 288.358 179 292.5 179Z" fill="#6F6F6F"/>
<path d="M339.5 179C343.642 179 347 175.642 347 171.5C347 167.358 343.642 164 339.5 164C335.358 164 332 167.358 332 171.5C332 175.642 335.358 179 339.5 179Z" fill="#6F6F6F"/>
<path d="M10.5 226C14.6421 226 18 222.642 18 218.5C18 214.358 14.6421 211 10.5 211C6.35786 211 3 214.358 3 218.5C3 222.642 6.35786 226 10.5 226Z" fill="#6F6F6F"/>
<path d="M57.5 226C61.6421 226 65 222.642 65 218.5C65 214.358 61.6421 211 57.5 211C53.3579 211 50 214.358 50 218.5C50 222.642 53.3579 226 57.5 226Z" fill="#6F6F6F"/>
<path d="M104.5 226C108.642 226 112 222.642 112 218.5C112 214.358 108.642 211 104.5 211C100.358 211 97 214.358 97 218.5C97 222.642 100.358 226 104.5 226Z" fill="#6F6F6F"/>
<path d="M151.5 226C155.642 226 159 222.642 159 218.5C159 214.358 155.642 211 151.5 211C147.358 211 144 214.358 144 218.5C144 222.642 147.358 226 151.5 226Z" fill="#6F6F6F"/>
<path d="M198.5 226C202.642 226 206 222.642 206 218.5C206 214.358 202.642 211 198.5 211C194.358 211 191 214.358 191 218.5C191 222.642 194.358 226 198.5 226Z" fill="#6F6F6F"/>
<path d="M245.5 226C249.642 226 253 222.642 253 218.5C253 214.358 249.642 211 245.5 211C241.358 211 238 214.358 238 218.5C238 222.642 241.358 226 245.5 226Z" fill="#6F6F6F"/>
<path d="M292.5 226C296.642 226 300 222.642 300 218.5C300 214.358 296.642 211 292.5 211C288.358 211 285 214.358 285 218.5C285 222.642 288.358 226 292.5 226Z" fill="#6F6F6F"/>
<path d="M339.5 226C343.642 226 347 222.642 347 218.5C347 214.358 343.642 211 339.5 211C335.358 211 332 214.358 332 218.5C332 222.642 335.358 226 339.5 226Z" fill="#6F6F6F"/>
<path d="M10.5 273C14.6421 273 18 269.642 18 265.5C18 261.358 14.6421 258 10.5 258C6.35786 258 3 261.358 3 265.5C3 269.642 6.35786 273 10.5 273Z" fill="#6F6F6F"/>
<path d="M57.5 273C61.6421 273 65 269.642 65 265.5C65 261.358 61.6421 258 57.5 258C53.3579 258 50 261.358 50 265.5C50 269.642 53.3579 273 57.5 273Z" fill="#6F6F6F"/>
<path d="M104.5 273C108.642 273 112 269.642 112 265.5C112 261.358 108.642 258 104.5 258C100.358 258 97 261.358 97 265.5C97 269.642 100.358 273 104.5 273Z" fill="#6F6F6F"/>
<path d="M151.5 273C155.642 273 159 269.642 159 265.5C159 261.358 155.642 258 151.5 258C147.358 258 144 261.358 144 265.5C144 269.642 147.358 273 151.5 273Z" fill="#6F6F6F"/>
<path d="M198.5 273C202.642 273 206 269.642 206 265.5C206 261.358 202.642 258 198.5 258C194.358 258 191 261.358 191 265.5C191 269.642 194.358 273 198.5 273Z" fill="#6F6F6F"/>
<path d="M245.5 273C249.642 273 253 269.642 253 265.5C253 261.358 249.642 258 245.5 258C241.358 258 238 261.358 238 265.5C238 269.642 241.358 273 245.5 273Z" fill="#6F6F6F"/>
<path d="M292.5 273C296.642 273 300 269.642 300 265.5C300 261.358 296.642 258 292.5 258C288.358 258 285 261.358 285 265.5C285 269.642 288.358 273 292.5 273Z" fill="#6F6F6F"/>
<path d="M339.5 273C343.642 273 347 269.642 347 265.5C347 261.358 343.642 258 339.5 258C335.358 258 332 261.358 332 265.5C332 269.642 335.358 273 339.5 273Z" fill="#6F6F6F"/>
<path d="M10.5 320C14.6421 320 18 316.642 18 312.5C18 308.358 14.6421 305 10.5 305C6.35786 305 3 308.358 3 312.5C3 316.642 6.35786 320 10.5 320Z" fill="#6F6F6F"/>
<path d="M57.5 320C61.6421 320 65 316.642 65 312.5C65 308.358 61.6421 305 57.5 305C53.3579 305 50 308.358 50 312.5C50 316.642 53.3579 320 57.5 320Z" fill="#6F6F6F"/>
<path d="M104.5 320C108.642 320 112 316.642 112 312.5C112 308.358 108.642 305 104.5 305C100.358 305 97 308.358 97 312.5C97 316.642 100.358 320 104.5 320Z" fill="#6F6F6F"/>
<path d="M151.5 320C155.642 320 159 316.642 159 312.5C159 308.358 155.642 305 151.5 305C147.358 305 144 308.358 144 312.5C144 316.642 147.358 320 151.5 320Z" fill="#6F6F6F"/>
<path d="M198.5 320C202.642 320 206 316.642 206 312.5C206 308.358 202.642 305 198.5 305C194.358 305 191 308.358 191 312.5C191 316.642 194.358 320 198.5 320Z" fill="#6F6F6F"/>
<path d="M245.5 320C249.642 320 253 316.642 253 312.5C253 308.358 249.642 305 245.5 305C241.358 305 238 308.358 238 312.5C238 316.642 241.358 320 245.5 320Z" fill="#6F6F6F"/>
<path d="M292.5 320C296.642 320 300 316.642 300 312.5C300 308.358 296.642 305 292.5 305C288.358 305 285 308.358 285 312.5C285 316.642 288.358 320 292.5 320Z" fill="#6F6F6F"/>
<path d="M339.5 320C343.642 320 347 316.642 347 312.5C347 308.358 343.642 305 339.5 305C335.358 305 332 308.358 332 312.5C332 316.642 335.358 320 339.5 320Z" fill="#6F6F6F"/>
<path d="M10.5 367C14.6421 367 18 363.642 18 359.5C18 355.358 14.6421 352 10.5 352C6.35786 352 3 355.358 3 359.5C3 363.642 6.35786 367 10.5 367Z" fill="#6F6F6F"/>
<path d="M57.5 367C61.6421 367 65 363.642 65 359.5C65 355.358 61.6421 352 57.5 352C53.3579 352 50 355.358 50 359.5C50 363.642 53.3579 367 57.5 367Z" fill="#6F6F6F"/>
<path d="M104.5 367C108.642 367 112 363.642 112 359.5C112 355.358 108.642 352 104.5 352C100.358 352 97 355.358 97 359.5C97 363.642 100.358 367 104.5 367Z" fill="#6F6F6F"/>
<path d="M151.5 367C155.642 367 159 363.642 159 359.5C159 355.358 155.642 352 151.5 352C147.358 352 144 355.358 144 359.5C144 363.642 147.358 367 151.5 367Z" fill="#6F6F6F"/>
<path d="M198.5 367C202.642 367 206 363.642 206 359.5C206 355.358 202.642 352 198.5 352C194.358 352 191 355.358 191 359.5C191 363.642 194.358 367 198.5 367Z" fill="#6F6F6F"/>
<path d="M245.5 367C249.642 367 253 363.642 253 359.5C253 355.358 249.642 352 245.5 352C241.358 352 238 355.358 238 359.5C238 363.642 241.358 367 245.5 367Z" fill="#6F6F6F"/>
<path d="M292.5 367C296.642 367 300 363.642 300 359.5C300 355.358 296.642 352 292.5 352C288.358 352 285 355.358 285 359.5C285 363.642 288.358 367 292.5 367Z" fill="#6F6F6F"/>
<path d="M339.5 367C343.642 367 347 363.642 347 359.5C347 355.358 343.642 352 339.5 352C335.358 352 332 355.358 332 359.5C332 363.642 335.358 367 339.5 367Z" fill="#6F6F6F"/>
<g opacity="0.08">
<g opacity="0.08">
<path opacity="0.08" d="M400 827.469C400 829.347 399.359 831.169 398.184 832.633C379.171 856.406 363.705 863.527 344.797 857.233C335.342 854.081 329.089 845.997 323.044 838.188C312.163 824.131 304.553 815.857 285.972 822.588C280.093 824.718 278.41 828.283 275.442 835.499C271.781 844.408 266.76 856.612 247.629 861.31C224.506 866.99 213.355 850.045 205.209 837.675C198.642 827.695 194.18 821.602 187.599 821.119C167.899 819.659 165.499 825.466 156.587 847.072L155.937 848.641C155.089 850.658 153.477 852.257 151.453 853.089C149.43 853.921 147.159 853.919 145.138 853.084C143.116 852.248 141.507 850.646 140.662 848.628C139.817 846.609 139.805 844.339 140.628 842.312L141.278 840.752C150.154 819.241 157.161 802.252 188.824 804.6C204.006 805.724 211.994 817.857 219.04 828.567C228.186 842.46 232.975 847.855 243.685 845.224C254.642 842.536 256.823 837.23 260.127 829.198C263.327 821.417 267.306 811.74 280.327 807.019C311.203 795.829 325.616 814.453 336.142 828.051C340.883 834.177 345.364 839.962 350.034 841.516C358.288 844.266 367.197 844.868 385.252 822.291C386.325 820.951 387.788 819.978 389.438 819.506C391.088 819.034 392.845 819.085 394.464 819.654C396.083 820.223 397.486 821.281 398.478 822.682C399.471 824.082 400.004 825.757 400.003 827.473L400 827.469Z" fill="#1E1E1E"/>
</g>
<g opacity="0.08">
<path opacity="0.08" d="M400 757.933C400 759.812 399.359 761.635 398.184 763.101C379.171 786.87 363.705 793.99 344.797 787.694C335.342 784.542 329.089 776.462 323.044 768.649C312.163 754.596 304.553 746.318 285.972 753.049C280.093 755.183 278.41 758.743 275.442 765.96C271.781 774.873 266.76 787.073 247.629 791.771C224.506 797.451 213.355 780.506 205.209 768.136C198.642 758.16 194.18 752.068 187.599 751.579C167.899 750.119 165.499 755.927 156.587 777.533L155.937 779.102C155.098 781.132 153.487 782.746 151.459 783.588C149.43 784.431 147.15 784.433 145.12 783.594C143.09 782.755 141.476 781.144 140.634 779.116C139.791 777.087 139.789 774.807 140.628 772.777L141.278 771.217C150.154 749.706 157.161 732.717 188.824 735.065C204.006 736.184 211.994 748.322 219.04 759.027C228.186 772.919 232.975 778.32 243.685 775.688C254.642 772.995 256.823 767.688 260.127 759.658C263.327 751.882 267.306 742.2 280.327 737.483C311.203 726.289 325.616 744.913 336.142 758.511C340.883 764.637 345.364 770.422 350.034 771.981C358.288 774.731 367.197 775.328 385.252 752.755C386.324 751.415 387.787 750.44 389.437 749.967C391.087 749.494 392.843 749.545 394.463 750.114C396.083 750.682 397.486 751.74 398.478 753.14C399.471 754.541 400.004 756.215 400.003 757.932L400 757.933Z" fill="#1E1E1E"/>
</g>
</g>
<path d="M1482 849H1780V878C1780 904.522 1769.46 929.957 1750.71 948.711C1731.96 967.464 1706.52 978 1680 978H1382V949C1382 922.478 1392.54 897.043 1411.29 878.289C1430.04 859.536 1455.48 849 1482 849V849Z" fill="#6F6F6F"/>
<path d="M666 92C736.692 92 794 34.4686 794 -36.5C794 -107.469 736.692 -165 666 -165C595.308 -165 538 -107.469 538 -36.5C538 34.4686 595.308 92 666 92Z" fill="#6F6F6F"/>
<path d="M2013.66 192.225H1833.94C1828.19 194.157 1822.52 196.245 1816.94 198.531H2030.66C2025.08 196.245 2019.41 194.153 2013.66 192.225Z" fill="#6F6F6F"/>
<path d="M2057.41 211.151H1790.19C1786.45 213.172 1782.78 215.281 1779.14 217.457H2068.46C2064.82 215.282 2061.14 213.18 2057.41 211.151Z" fill="#6F6F6F"/>
<path d="M2087.6 230.074H1759.99C1757.12 232.132 1754.29 234.227 1751.5 236.388H2096.09C2093.31 234.231 2090.47 232.136 2087.6 230.074Z" fill="#6F6F6F"/>
<path d="M2111.3 249.004H1736.29C1733.98 251.062 1731.73 253.186 1729.5 255.318H2118.1C2115.86 253.186 2113.61 251.062 2111.3 249.004Z" fill="#6F6F6F"/>
<path d="M2130.58 267.931H1717.01C1715.1 270.004 1713.24 272.12 1711.39 274.245H2136.21C2134.36 272.12 2132.5 270.004 2130.58 267.931Z" fill="#6F6F6F"/>
<path d="M2146.59 286.855H1701C1699.38 288.942 1697.78 291.037 1696.23 293.161H2151.36C2149.81 291.039 2148.21 288.944 2146.59 286.855Z" fill="#6F6F6F"/>
<path d="M2160.06 305.784H1687.54C1686.17 307.879 1684.8 309.966 1683.5 312.098H2164.1C2162.8 309.966 2161.42 307.879 2160.06 305.784Z" fill="#6F6F6F"/>
<path d="M2171.43 324.71H1676.17C1675.04 326.79 1674 328.91 1672.92 331.024H2174.68C2173.59 328.914 2172.56 326.79 2171.43 324.71Z" fill="#6F6F6F"/>
<path d="M2180.74 343.637H1666.84C1665.89 345.746 1664.91 347.819 1664.01 349.951H2183.57C2182.68 347.819 2181.7 345.746 2180.74 343.637Z" fill="#6F6F6F"/>
<path d="M2188.54 362.563H1659.04C1658.28 364.643 1657.62 366.763 1656.91 368.877H2190.68C2189.97 366.767 2189.3 364.643 2188.54 362.563Z" fill="#6F6F6F"/>
<path d="M2194.63 381.497H1652.98C1652.38 383.592 1651.74 385.686 1651.18 387.803H2196.41C2195.86 385.686 2195.23 383.592 2194.63 381.497Z" fill="#6F6F6F"/>
<path d="M2199.39 400.418H1648.22C1647.77 402.513 1647.38 404.618 1646.98 406.732H2200.63C2200.22 404.618 2199.83 402.511 2199.39 400.418Z" fill="#6F6F6F"/>
<path d="M2202.72 419.343H1644.87C1644.57 421.438 1644.32 423.543 1644.07 425.657H2203.52C2203.27 423.547 2203.02 421.438 2202.72 419.343Z" fill="#6F6F6F"/>
<path d="M2204.73 438.269H1642.86C1642.71 440.378 1642.49 442.469 1642.38 444.583H2205.21C2205.1 442.466 2204.89 440.379 2204.73 438.269Z" fill="#6F6F6F"/>
<path d="M2205.59 459.3C2205.59 458.6 2205.55 457.906 2205.55 457.2H1642.06C1642.05 457.908 1642 458.6 1642 459.3C1642 460.716 1642.09 462.1 1642.11 463.512H2205.49C2205.51 462.1 2205.59 460.714 2205.59 459.3Z" fill="#6F6F6F"/>
<path d="M2205.05 476.129H1642.55C1642.67 478.238 1642.86 480.329 1643.03 482.435H2204.57C2204.74 480.333 2204.93 478.238 2205.05 476.129Z" fill="#6F6F6F"/>
<path d="M2203.25 495.056H1644.33C1644.6 497.156 1644.83 499.268 1645.13 501.362H2202.45C2202.77 499.268 2202.99 497.158 2203.25 495.056Z" fill="#6F6F6F"/>
<path d="M2200.25 513.975H1647.35C1647.76 516.092 1648.24 518.187 1648.7 520.289H2198.9C2199.36 518.187 2199.83 516.092 2200.25 513.975Z" fill="#6F6F6F"/>
<path d="M2195.82 532.909H1651.77C1652.35 535.019 1652.95 537.121 1653.57 539.215H2194.02C2194.64 537.121 2195.25 535.019 2195.82 532.909Z" fill="#6F6F6F"/>
<path d="M2189.97 551.828H1657.62C1658.36 553.945 1659.09 556.054 1659.87 558.142H2187.73C2188.51 556.054 2189.24 553.945 2189.97 551.828Z" fill="#6F6F6F"/>
<path d="M2182.65 570.754H1664.95C1665.86 572.878 1666.84 574.973 1667.8 577.068H2179.8C2180.76 574.973 2181.74 572.878 2182.65 570.754Z" fill="#6F6F6F"/>
<path d="M2173.6 589.688H1674C1675.11 591.797 1676.22 593.907 1677.38 595.994H2170.22C2171.38 593.907 2172.49 591.797 2173.6 589.688Z" fill="#6F6F6F"/>
<path d="M2162.75 608.615H1684.84C1686.17 610.732 1687.51 612.841 1688.89 614.921H2158.71C2160.09 612.841 2161.43 610.732 2162.75 608.615Z" fill="#6F6F6F"/>
<path d="M2149.87 627.541H1697.73C1699.32 629.68 1701 631.753 1702.65 633.847H2144.94C2146.6 631.75 2148.27 629.68 2149.87 627.541Z" fill="#6F6F6F"/>
<path d="M2134.39 646.46H1713.21C1715.11 648.599 1717.06 650.694 1719.02 652.774H2128.58C2130.54 650.694 2132.49 648.599 2134.39 646.46Z" fill="#6F6F6F"/>
<path d="M2115.89 665.387H1731.7C1734 667.533 1736.35 669.636 1738.72 671.701H2108.88C2111.25 669.636 2113.59 667.533 2115.89 665.387Z" fill="#6F6F6F"/>
<path d="M2093.41 684.32H1754.18C1757.05 686.489 1759.99 688.569 1762.95 690.626H2084.65C2087.61 688.568 2090.54 686.488 2093.41 684.32Z" fill="#6F6F6F"/>
<path d="M2064.8 703.247H1782.8C1786.58 705.438 1790.41 707.54 1794.3 709.553H2053.3C2057.19 707.54 2061.02 705.438 2064.8 703.247Z" fill="#6F6F6F"/>
<path d="M2025.32 722.173H1822.27C1828.16 724.445 1834.11 726.598 1840.18 728.479H2007.41C2013.48 726.598 2019.44 724.445 2025.32 722.173Z" fill="#6F6F6F"/>
<path d="M1325 291H1250V366H1325V291Z" stroke="#6F6F6F" stroke-width="12"/>
<path d="M1360 324H1285V399H1360V324Z" stroke="#6F6F6F" stroke-width="12"/>
<path d="M577.431 1057.1C569.632 1057.1 562.008 1054.79 555.522 1050.46C549.037 1046.12 543.982 1039.97 540.997 1032.76C538.011 1025.56 537.229 1017.63 538.75 1009.98C540.27 1002.33 544.025 995.302 549.54 989.787C555.054 984.271 562.08 980.515 569.729 978.993C577.378 977.471 585.306 978.252 592.512 981.236C599.717 984.22 605.876 989.274 610.209 995.759C614.542 1002.24 616.855 1009.87 616.855 1017.67C616.842 1028.12 612.685 1038.14 605.294 1045.53C597.904 1052.92 587.884 1057.08 577.431 1057.1V1057.1ZM577.431 990.847C572.128 990.846 566.943 992.418 562.533 995.364C558.123 998.31 554.685 1002.5 552.655 1007.4C550.624 1012.3 550.093 1017.69 551.126 1022.89C552.16 1028.09 554.714 1032.87 558.463 1036.62C562.213 1040.37 566.99 1042.93 572.192 1043.96C577.393 1045 582.785 1044.47 587.685 1042.44C592.585 1040.41 596.773 1036.97 599.721 1032.56C602.668 1028.15 604.241 1022.97 604.242 1017.67C604.236 1010.56 601.409 1003.74 596.383 998.712C591.356 993.684 584.541 990.855 577.431 990.847V990.847Z" fill="#6F6F6F"/>
<path d="M775.5 197.918L743.564 253H807.436L775.5 197.918ZM775.5 172L830 266H721L775.5 172Z" fill="#6F6F6F"/>
</g>
<defs>
<clipPath id="clip0">
<rect width="1920" height="1080" fill="white"/>
</clipPath>
</defs>
</svg>
