<svg
  xmlns="http://www.w3.org/2000/svg"
  width="841.308"
  height="65.116"
  viewBox="0 0 841.308 65.116"
>
  <g transform="translate(302.886 -1321.925)">
    <rect
      width="16.841"
      height="63.995"
      transform="translate(6.159 1321.925) rotate(25)"
      fill="#4bba83"
    />
    <rect
      width="16.841"
      height="63.995"
      transform="translate(53.159 1321.925) rotate(25)"
      fill="#4bba83"
    />
    <rect
      width="16.841"
      height="63.995"
      transform="translate(100.159 1321.925) rotate(25)"
      fill="#4bba83"
    />
    <rect
      width="16.841"
      height="63.995"
      transform="translate(147.159 1321.925) rotate(25)"
      fill="#4bba83"
    />
    <rect
      width="16.841"
      height="63.995"
      transform="translate(194.159 1321.925) rotate(25)"
      fill="#4bba83"
    />
    <rect
      width="16.841"
      height="63.995"
      transform="translate(241.159 1321.925) rotate(25)"
      fill="#4bba83"
    />
    <rect
      width="16.841"
      height="63.995"
      transform="translate(288.159 1321.925) rotate(25)"
      fill="#4bba83"
    />
    <rect
      width="16.841"
      height="63.995"
      transform="translate(335.159 1321.925) rotate(25)"
      fill="#4bba83"
    />
    <rect
      width="16.841"
      height="63.995"
      transform="translate(382.159 1321.925) rotate(25)"
      fill="#4bba83"
    />
    <rect
      width="16.841"
      height="63.995"
      transform="translate(429.159 1321.925) rotate(25)"
      fill="#4bba83"
    />
    <rect
      width="16.841"
      height="63.995"
      transform="translate(476.159 1321.925) rotate(25)"
      fill="#4bba83"
    />
    <rect
      width="16.841"
      height="63.995"
      transform="translate(523.159 1321.925) rotate(25)"
      fill="#4bba83"
    />
    <rect
      width="16.841"
      height="63.995"
      transform="translate(-275.841 1321.925) rotate(25)"
      fill="#4bba83"
    />
    <rect
      width="16.841"
      height="63.995"
      transform="translate(-228.841 1321.925) rotate(25)"
      fill="#4bba83"
    />
    <rect
      width="16.841"
      height="63.995"
      transform="translate(-181.841 1321.925) rotate(25)"
      fill="#4bba83"
    />
    <rect
      width="16.841"
      height="63.995"
      transform="translate(-134.841 1321.925) rotate(25)"
      fill="#4bba83"
    />
    <rect
      width="16.841"
      height="63.995"
      transform="translate(-87.841 1321.925) rotate(25)"
      fill="#4bba83"
    />
    <rect
      width="16.841"
      height="63.995"
      transform="translate(-40.841 1321.925) rotate(25)"
      fill="#4bba83"
    />
  </g>
</svg>
