<svg width="1920" height="1080" fill="none" xmlns="http://www.w3.org/2000/svg"><g clip-path="url(#clip0)"><path d="M10.5 132a7.5 7.5 0 100-15 7.5 7.5 0 000 15zM57.5 132a7.5 7.5 0 100-15 7.5 7.5 0 000 15zM104.5 132a7.5 7.5 0 100-15 7.5 7.5 0 000 15zM151.5 132a7.5 7.5 0 100-15 7.5 7.5 0 000 15zM198.5 132a7.5 7.5 0 100-15 7.5 7.5 0 000 15zM245.5 132a7.5 7.5 0 100-15 7.5 7.5 0 000 15zM292.5 132a7.5 7.5 0 100-15 7.5 7.5 0 000 15zM339.5 132a7.5 7.5 0 100-15 7.5 7.5 0 000 15zM10.5 179a7.5 7.5 0 100-15 7.5 7.5 0 000 15zM57.5 179a7.5 7.5 0 100-15 7.5 7.5 0 000 15zM104.5 179a7.5 7.5 0 100-15 7.5 7.5 0 000 15zM151.5 179a7.5 7.5 0 100-15 7.5 7.5 0 000 15zM198.5 179a7.5 7.5 0 100-15 7.5 7.5 0 000 15zM245.5 179a7.5 7.5 0 100-15 7.5 7.5 0 000 15zM292.5 179a7.5 7.5 0 100-15 7.5 7.5 0 000 15zM339.5 179a7.5 7.5 0 100-15 7.5 7.5 0 000 15zM10.5 226a7.5 7.5 0 100-15 7.5 7.5 0 000 15zM57.5 226a7.5 7.5 0 100-15 7.5 7.5 0 000 15zM104.5 226a7.5 7.5 0 100-15 7.5 7.5 0 000 15zM151.5 226a7.5 7.5 0 100-15 7.5 7.5 0 000 15zM198.5 226a7.5 7.5 0 100-15 7.5 7.5 0 000 15zM245.5 226a7.5 7.5 0 100-15 7.5 7.5 0 000 15zM292.5 226a7.5 7.5 0 100-15 7.5 7.5 0 000 15zM339.5 226a7.5 7.5 0 100-15 7.5 7.5 0 000 15zM10.5 273a7.5 7.5 0 100-15 7.5 7.5 0 000 15zM57.5 273a7.5 7.5 0 100-15 7.5 7.5 0 000 15zM104.5 273a7.5 7.5 0 100-15 7.5 7.5 0 000 15zM151.5 273a7.5 7.5 0 100-15 7.5 7.5 0 000 15zM198.5 273a7.5 7.5 0 100-15 7.5 7.5 0 000 15zM245.5 273a7.5 7.5 0 100-15 7.5 7.5 0 000 15zM292.5 273a7.5 7.5 0 100-15 7.5 7.5 0 000 15zM339.5 273a7.5 7.5 0 100-15 7.5 7.5 0 000 15zM10.5 320a7.5 7.5 0 100-15 7.5 7.5 0 000 15zM57.5 320a7.5 7.5 0 100-15 7.5 7.5 0 000 15zM104.5 320a7.5 7.5 0 100-15 7.5 7.5 0 000 15zM151.5 320a7.5 7.5 0 100-15 7.5 7.5 0 000 15zM198.5 320a7.5 7.5 0 100-15 7.5 7.5 0 000 15zM245.5 320a7.5 7.5 0 100-15 7.5 7.5 0 000 15zM292.5 320a7.5 7.5 0 100-15 7.5 7.5 0 000 15zM339.5 320a7.5 7.5 0 100-15 7.5 7.5 0 000 15zM10.5 367a7.5 7.5 0 100-15 7.5 7.5 0 000 15zM57.5 367a7.5 7.5 0 100-15 7.5 7.5 0 000 15zM104.5 367a7.5 7.5 0 100-15 7.5 7.5 0 000 15zM151.5 367a7.5 7.5 0 100-15 7.5 7.5 0 000 15zM198.5 367a7.5 7.5 0 100-15 7.5 7.5 0 000 15zM245.5 367a7.5 7.5 0 100-15 7.5 7.5 0 000 15zM292.5 367a7.5 7.5 0 100-15 7.5 7.5 0 000 15zM339.5 367a7.5 7.5 0 100-15 7.5 7.5 0 000 15z" fill="#6F6F6F"/><g opacity=".08"><path opacity=".08" d="M400 827.469c0 1.878-.641 3.7-1.816 5.164-19.013 23.773-34.479 30.894-53.387 24.6-9.455-3.152-15.708-11.236-21.753-19.045-10.881-14.057-18.491-22.331-37.072-15.6-5.879 2.13-7.562 5.695-10.53 12.911-3.661 8.909-8.682 21.113-27.813 25.811-23.123 5.68-34.274-11.265-42.42-23.635-6.567-9.98-11.029-16.073-17.61-16.556-19.7-1.46-22.1 4.347-31.012 25.953l-.65 1.569a8.287 8.287 0 01-10.799 4.443 8.284 8.284 0 01-4.51-10.772l.65-1.56c8.876-21.511 15.883-38.5 47.546-36.152 15.182 1.124 23.17 13.257 30.216 23.967 9.146 13.893 13.935 19.288 24.645 16.657 10.957-2.688 13.138-7.994 16.442-16.026 3.2-7.781 7.179-17.458 20.2-22.179 30.876-11.19 45.289 7.434 55.815 21.032 4.741 6.126 9.222 11.911 13.892 13.465 8.254 2.75 17.163 3.352 35.218-19.225a8.28 8.28 0 019.212-2.637 8.284 8.284 0 015.539 7.819l-.003-.004zM400 757.933a8.264 8.264 0 01-1.816 5.168c-19.013 23.769-34.479 30.889-53.387 24.593-9.455-3.152-15.708-11.232-21.753-19.045-10.881-14.053-18.491-22.331-37.072-15.6-5.879 2.134-7.562 5.694-10.53 12.911-3.661 8.913-8.682 21.113-27.813 25.811-23.123 5.68-34.274-11.265-42.42-23.635-6.567-9.976-11.029-16.068-17.61-16.557-19.7-1.46-22.1 4.348-31.012 25.954l-.65 1.569a8.283 8.283 0 01-15.309-6.325l.65-1.56c8.876-21.511 15.883-38.5 47.546-36.152 15.182 1.119 23.17 13.257 30.216 23.962 9.146 13.892 13.935 19.293 24.645 16.661 10.957-2.693 13.138-8 16.442-16.03 3.2-7.776 7.179-17.458 20.2-22.175 30.876-11.194 45.289 7.43 55.815 21.028 4.741 6.126 9.222 11.911 13.892 13.47 8.254 2.75 17.163 3.347 35.218-19.226a8.285 8.285 0 0113.226.385 8.278 8.278 0 011.525 4.792l-.003.001z" fill="#1E1E1E"/></g><path d="M1482 849h298v29a99.997 99.997 0 01-100 100h-298v-29a99.997 99.997 0 01100-100zM666 92c70.692 0 128-57.531 128-128.5S736.692-165 666-165c-70.692 0-128 57.531-128 128.5S595.308 92 666 92zM2013.66 192.225h-179.72a280.333 280.333 0 00-17 6.306h213.72a277.67 277.67 0 00-17-6.306zM2057.41 211.151h-267.22c-3.74 2.021-7.41 4.13-11.05 6.306h289.32a314.805 314.805 0 00-11.05-6.306zM2087.6 230.074h-327.61c-2.87 2.058-5.7 4.153-8.49 6.314h344.59a287.203 287.203 0 00-8.49-6.314zM2111.3 249.004h-375.01c-2.31 2.058-4.56 4.182-6.79 6.314h388.6c-2.24-2.132-4.49-4.256-6.8-6.314zM2130.58 267.931h-413.57a300.012 300.012 0 00-5.62 6.314h424.82c-1.85-2.125-3.71-4.241-5.63-6.314zM2146.59 286.855H1701a266.68 266.68 0 00-4.77 6.306h455.13a275.176 275.176 0 00-4.77-6.306zM2160.06 305.784h-472.52c-1.37 2.095-2.74 4.182-4.04 6.314h480.6c-1.3-2.132-2.68-4.219-4.04-6.314zM2171.43 324.71h-495.26c-1.13 2.08-2.17 4.2-3.25 6.314h501.76c-1.09-2.11-2.12-4.234-3.25-6.314zM2180.74 343.637h-513.9c-.95 2.109-1.93 4.182-2.83 6.314h519.56c-.89-2.132-1.87-4.205-2.83-6.314zM2188.54 362.563h-529.5c-.76 2.08-1.42 4.2-2.13 6.314h533.77c-.71-2.11-1.38-4.234-2.14-6.314zM2194.63 381.497h-541.65c-.6 2.095-1.24 4.189-1.8 6.306h545.23c-.55-2.117-1.18-4.211-1.78-6.306zM2199.39 400.418h-551.17c-.45 2.095-.84 4.2-1.24 6.314h553.65c-.41-2.114-.8-4.221-1.24-6.314zM2202.72 419.343h-557.85c-.3 2.095-.55 4.2-.8 6.314h559.45c-.25-2.11-.5-4.219-.8-6.314zM2204.73 438.269h-561.87c-.15 2.109-.37 4.2-.48 6.314h562.83c-.11-2.117-.32-4.204-.48-6.314zM2205.59 459.3c0-.7-.04-1.394-.04-2.1h-563.49c-.01.708-.06 1.4-.06 2.1 0 1.416.09 2.8.11 4.212h563.38c.02-1.412.1-2.798.1-4.212zM2205.05 476.129h-562.5c.12 2.109.31 4.2.48 6.306h561.54c.17-2.102.36-4.197.48-6.306zM2203.25 495.056h-558.92c.27 2.1.5 4.212.8 6.306h557.32c.32-2.094.54-4.204.8-6.306zM2200.25 513.975h-552.9c.41 2.117.89 4.212 1.35 6.314h550.2c.46-2.102.93-4.197 1.35-6.314zM2195.82 532.909h-544.05c.58 2.11 1.18 4.212 1.8 6.306h540.45a273.21 273.21 0 001.8-6.306zM2189.97 551.828h-532.35c.74 2.117 1.47 4.226 2.25 6.314h527.86c.78-2.088 1.51-4.197 2.24-6.314zM2182.65 570.754h-517.7c.91 2.124 1.89 4.219 2.85 6.314h512c.96-2.095 1.94-4.19 2.85-6.314zM2173.6 589.688H1674c1.11 2.109 2.22 4.219 3.38 6.306h492.84c1.16-2.087 2.27-4.197 3.38-6.306zM2162.75 608.615h-477.91c1.33 2.117 2.67 4.226 4.05 6.306h469.82c1.38-2.08 2.72-4.189 4.04-6.306zM2149.87 627.541h-452.14c1.59 2.139 3.27 4.212 4.92 6.306h442.29c1.66-2.097 3.33-4.167 4.93-6.306zM2134.39 646.46h-421.18c1.9 2.139 3.85 4.234 5.81 6.314h409.56c1.96-2.08 3.91-4.175 5.81-6.314zM2115.89 665.387H1731.7c2.3 2.146 4.65 4.249 7.02 6.314h370.16c2.37-2.065 4.71-4.168 7.01-6.314zM2093.41 684.32h-339.23c2.87 2.169 5.81 4.249 8.77 6.306h321.7c2.96-2.058 5.89-4.138 8.76-6.306zM2064.8 703.247h-282c3.78 2.191 7.61 4.293 11.5 6.306h259c3.89-2.013 7.72-4.115 11.5-6.306zM2025.32 722.173h-203.05c5.89 2.272 11.84 4.425 17.91 6.306h167.23c6.07-1.881 12.03-4.034 17.91-6.306z" fill="#6F6F6F"/><path d="M1325 291h-75v75h75v-75z" stroke="#6F6F6F" stroke-width="12"/><path d="M1360 324h-75v75h75v-75z" stroke="#6F6F6F" stroke-width="12"/><path d="M577.431 1057.1a39.458 39.458 0 01-21.909-6.64 39.458 39.458 0 01-14.525-17.7 39.41 39.41 0 01-2.247-22.78 39.423 39.423 0 0110.79-20.193 39.425 39.425 0 0142.972-8.551 39.429 39.429 0 0124.343 36.434 39.467 39.467 0 01-11.561 27.86 39.511 39.511 0 01-27.863 11.57zm0-66.253a26.812 26.812 0 00-24.776 16.553 26.81 26.81 0 0019.537 36.56 26.766 26.766 0 0015.493-1.52 26.836 26.836 0 0016.557-24.77 26.842 26.842 0 00-26.811-26.823zM775.5 197.918L743.564 253h63.872L775.5 197.918zm0-25.918l54.5 94H721l54.5-94z" fill="#6F6F6F"/></g><defs><clipPath id="clip0"><path fill="#fff" d="M0 0h1920v1080H0z"/></clipPath></defs></svg>