<svg xmlns="http://www.w3.org/2000/svg" width="1920" height="1080"><defs><clipPath id="a"><path fill="#fff" stroke="#707070" d="M0 0h1920v1080H0z"/></clipPath></defs><g clip-path="url(#a)"><circle cx="7.5" cy="7.5" r="7.5" transform="translate(3 117)" fill="#303030"/><circle cx="7.5" cy="7.5" r="7.5" transform="translate(50 117)" fill="#303030"/><circle cx="7.5" cy="7.5" r="7.5" transform="translate(97 117)" fill="#303030"/><circle cx="7.5" cy="7.5" r="7.5" transform="translate(144 117)" fill="#303030"/><circle cx="7.5" cy="7.5" r="7.5" transform="translate(191 117)" fill="#303030"/><circle cx="7.5" cy="7.5" r="7.5" transform="translate(238 117)" fill="#303030"/><circle cx="7.5" cy="7.5" r="7.5" transform="translate(285 117)" fill="#303030"/><circle cx="7.5" cy="7.5" r="7.5" transform="translate(332 117)" fill="#303030"/><circle cx="7.5" cy="7.5" r="7.5" transform="translate(3 164)" fill="#303030"/><circle cx="7.5" cy="7.5" r="7.5" transform="translate(50 164)" fill="#303030"/><circle cx="7.5" cy="7.5" r="7.5" transform="translate(97 164)" fill="#303030"/><circle cx="7.5" cy="7.5" r="7.5" transform="translate(144 164)" fill="#303030"/><circle cx="7.5" cy="7.5" r="7.5" transform="translate(191 164)" fill="#303030"/><circle cx="7.5" cy="7.5" r="7.5" transform="translate(238 164)" fill="#303030"/><circle cx="7.5" cy="7.5" r="7.5" transform="translate(285 164)" fill="#303030"/><circle cx="7.5" cy="7.5" r="7.5" transform="translate(332 164)" fill="#303030"/><circle cx="7.5" cy="7.5" r="7.5" transform="translate(3 211)" fill="#303030"/><circle cx="7.5" cy="7.5" r="7.5" transform="translate(50 211)" fill="#303030"/><circle cx="7.5" cy="7.5" r="7.5" transform="translate(97 211)" fill="#303030"/><circle cx="7.5" cy="7.5" r="7.5" transform="translate(144 211)" fill="#303030"/><circle cx="7.5" cy="7.5" r="7.5" transform="translate(191 211)" fill="#303030"/><circle cx="7.5" cy="7.5" r="7.5" transform="translate(238 211)" fill="#303030"/><circle cx="7.5" cy="7.5" r="7.5" transform="translate(285 211)" fill="#303030"/><circle cx="7.5" cy="7.5" r="7.5" transform="translate(332 211)" fill="#303030"/><circle cx="7.5" cy="7.5" r="7.5" transform="translate(3 258)" fill="#303030"/><circle cx="7.5" cy="7.5" r="7.5" transform="translate(50 258)" fill="#303030"/><circle cx="7.5" cy="7.5" r="7.5" transform="translate(97 258)" fill="#303030"/><circle cx="7.5" cy="7.5" r="7.5" transform="translate(144 258)" fill="#303030"/><circle cx="7.5" cy="7.5" r="7.5" transform="translate(191 258)" fill="#303030"/><circle cx="7.5" cy="7.5" r="7.5" transform="translate(238 258)" fill="#303030"/><circle cx="7.5" cy="7.5" r="7.5" transform="translate(285 258)" fill="#303030"/><circle cx="7.5" cy="7.5" r="7.5" transform="translate(332 258)" fill="#303030"/><circle cx="7.5" cy="7.5" r="7.5" transform="translate(3 305)" fill="#303030"/><circle cx="7.5" cy="7.5" r="7.5" transform="translate(50 305)" fill="#303030"/><circle cx="7.5" cy="7.5" r="7.5" transform="translate(97 305)" fill="#303030"/><circle cx="7.5" cy="7.5" r="7.5" transform="translate(144 305)" fill="#303030"/><circle cx="7.5" cy="7.5" r="7.5" transform="translate(191 305)" fill="#303030"/><circle cx="7.5" cy="7.5" r="7.5" transform="translate(238 305)" fill="#303030"/><circle cx="7.5" cy="7.5" r="7.5" transform="translate(285 305)" fill="#303030"/><circle cx="7.5" cy="7.5" r="7.5" transform="translate(332 305)" fill="#303030"/><circle cx="7.5" cy="7.5" r="7.5" transform="translate(3 352)" fill="#303030"/><circle cx="7.5" cy="7.5" r="7.5" transform="translate(50 352)" fill="#303030"/><circle cx="7.5" cy="7.5" r="7.5" transform="translate(97 352)" fill="#303030"/><circle cx="7.5" cy="7.5" r="7.5" transform="translate(144 352)" fill="#303030"/><circle cx="7.5" cy="7.5" r="7.5" transform="translate(191 352)" fill="#303030"/><circle cx="7.5" cy="7.5" r="7.5" transform="translate(238 352)" fill="#303030"/><circle cx="7.5" cy="7.5" r="7.5" transform="translate(285 352)" fill="#303030"/><circle cx="7.5" cy="7.5" r="7.5" transform="translate(332 352)" fill="#303030"/><g opacity=".08"><path d="M400 827.469a8.251 8.251 0 01-1.816 5.164c-19.013 23.773-34.479 30.894-53.387 24.6-9.455-3.152-15.708-11.236-21.753-19.045-10.881-14.057-18.491-22.331-37.072-15.6-5.879 2.13-7.562 5.695-10.53 12.911-3.661 8.909-8.682 21.113-27.813 25.811-23.123 5.68-34.274-11.265-42.42-23.635-6.567-9.98-11.029-16.073-17.61-16.556-19.7-1.46-22.1 4.347-31.012 25.953l-.65 1.569a8.283 8.283 0 01-15.309-6.329l.65-1.56c8.876-21.511 15.883-38.5 47.546-36.152 15.182 1.124 23.17 13.257 30.216 23.967 9.146 13.893 13.935 19.288 24.645 16.657 10.957-2.688 13.138-7.994 16.442-16.026 3.2-7.781 7.179-17.458 20.2-22.179 30.876-11.19 45.289 7.434 55.815 21.032 4.741 6.126 9.222 11.911 13.892 13.465 8.254 2.75 17.163 3.352 35.218-19.225a8.285 8.285 0 0114.751 5.182zM400 757.933a8.263 8.263 0 01-1.816 5.168c-19.013 23.769-34.479 30.889-53.387 24.593-9.455-3.152-15.708-11.232-21.753-19.045-10.881-14.053-18.491-22.331-37.072-15.6-5.879 2.134-7.562 5.694-10.53 12.911-3.661 8.913-8.682 21.113-27.813 25.811-23.123 5.68-34.274-11.265-42.42-23.635-6.567-9.976-11.029-16.068-17.61-16.557-19.7-1.46-22.1 4.348-31.012 25.954l-.65 1.569a8.282 8.282 0 01-15.309-6.325l.65-1.56c8.876-21.511 15.883-38.5 47.546-36.152 15.182 1.119 23.17 13.257 30.216 23.962 9.146 13.892 13.935 19.293 24.645 16.661 10.957-2.693 13.138-8 16.442-16.03 3.2-7.776 7.179-17.458 20.2-22.175 30.876-11.194 45.289 7.43 55.815 21.028 4.741 6.126 9.222 11.911 13.892 13.47 8.254 2.75 17.163 3.347 35.218-19.226a8.283 8.283 0 0114.751 5.177z" fill="#fff"/></g><path d="M1482 849h298v29a100 100 0 01-100 100h-298v-29a100 100 0 01100-100z" fill="#303030"/><ellipse cx="128" cy="128.5" rx="128" ry="128.5" transform="translate(538 -165)" fill="#303030"/><path d="M2013.655 192.225h-179.713a278.353 278.353 0 00-17 6.306h213.714a275.757 275.757 0 00-17.001-6.306zM2057.409 211.151h-267.22a289.818 289.818 0 00-11.049 6.306h289.319q-5.455-3.263-11.05-6.306zM2087.605 230.074h-327.614a287.524 287.524 0 00-8.49 6.314h344.594a298.156 298.156 0 00-8.49-6.314zM2111.304 249.004h-375.011c-2.308 2.058-4.558 4.182-6.793 6.314h388.6c-2.238-2.132-4.487-4.256-6.796-6.314zM2130.577 267.931h-413.564a306.15 306.15 0 00-5.628 6.314h424.828a284.722 284.722 0 00-5.636-6.314zM2146.587 286.855h-445.588a300.496 300.496 0 00-4.772 6.306h455.135a278.345 278.345 0 00-4.775-6.306zM2160.058 305.784h-472.519c-1.365 2.095-2.736 4.182-4.042 6.314h480.6c-1.302-2.132-2.674-4.219-4.039-6.314zM2171.432 324.71h-495.259c-1.136 2.08-2.168 4.2-3.252 6.314h501.757c-1.085-2.11-2.117-4.234-3.246-6.314zM2180.744 343.637h-513.9c-.952 2.109-1.933 4.182-2.833 6.314h519.564c-.894-2.132-1.875-4.205-2.831-6.314zM2188.544 362.563h-529.5c-.76 2.08-1.423 4.2-2.132 6.314h533.769c-.714-2.11-1.377-4.234-2.137-6.314zM2194.629 381.497h-541.653c-.6 2.095-1.239 4.189-1.793 6.306h545.231c-.553-2.117-1.187-4.211-1.785-6.306zM2199.387 400.418h-551.171c-.45 2.095-.841 4.2-1.232 6.314h553.642c-.41-2.114-.796-4.221-1.239-6.314zM2202.721 419.343H1644.87c-.3 2.095-.546 4.2-.8 6.314h559.452c-.248-2.11-.499-4.219-.801-6.314zM2204.735 438.269h-561.872c-.155 2.109-.369 4.2-.479 6.314h562.83c-.111-2.117-.325-4.204-.479-6.314zM2205.59 459.3c0-.7-.044-1.394-.044-2.1h-563.487c-.007.708-.059 1.4-.059 2.1 0 1.416.089 2.8.111 4.212h563.375c.026-1.412.104-2.798.104-4.212zM2205.052 476.129h-562.506c.125 2.109.31 4.2.479 6.306h561.547c.169-2.102.354-4.197.48-6.306zM2203.251 495.056h-558.918c.266 2.1.494 4.212.8 6.306h557.32c.319-2.094.54-4.204.798-6.306zM2200.25 513.975h-552.9c.413 2.117.885 4.212 1.35 6.314h550.2c.465-2.102.93-4.197 1.35-6.314zM2195.824 532.909h-544.051c.575 2.11 1.18 4.212 1.8 6.306h540.452a313.391 313.391 0 001.799-6.306zM2189.967 551.828h-532.345c.737 2.117 1.468 4.226 2.25 6.314h527.854a259.052 259.052 0 002.241-6.314zM2182.647 570.754h-517.7c.914 2.124 1.888 4.219 2.854 6.314h512c.961-2.095 1.935-4.19 2.846-6.314zM2173.601 589.688h-499.6a308.24 308.24 0 003.378 6.306h492.841a289.907 289.907 0 003.381-6.306zM2162.75 608.615h-477.907a293.71 293.71 0 004.05 6.306h469.821a281.965 281.965 0 004.036-6.306zM2149.873 627.541h-452.148c1.593 2.139 3.275 4.212 4.927 6.306h442.286c1.66-2.097 3.334-4.167 4.935-6.306zM2134.391 646.46h-421.184a286.93 286.93 0 005.813 6.314h409.558c1.962-2.08 3.91-4.175 5.813-6.314zM2115.892 665.387h-384.194c2.3 2.146 4.654 4.249 7.022 6.314h370.158a277.386 277.386 0 007.014-6.314zM2093.409 684.32h-339.227c2.869 2.169 5.812 4.249 8.77 6.306h321.7c2.953-2.058 5.888-4.138 8.757-6.306zM2064.799 703.247h-282q5.665 3.286 11.5 6.306h259q5.832-3.02 11.5-6.306zM2025.324 722.173h-203.05c5.886 2.272 11.838 4.425 17.908 6.306h167.233c6.07-1.881 12.022-4.034 17.909-6.306z" fill="#303030"/><g fill="none" stroke="#303030" stroke-width="12"><path stroke="none" d="M1244 285h87v87h-87z"/><path d="M1250 291h75v75h-75z"/></g><g fill="none" stroke="#303030" stroke-width="12"><path stroke="none" d="M1279 318h87v87h-87z"/><path d="M1285 324h75v75h-75z"/></g><g><path d="M577.431 1057.097a39.431 39.431 0 1139.424-39.431 39.479 39.479 0 01-39.424 39.431zm0-66.25a26.815 26.815 0 1026.811 26.819 26.842 26.842 0 00-26.811-26.819z" fill="#303030"/></g><g fill="none"><path d="M775.5 172l54.5 94H721z"/><path d="M775.5 197.918L743.564 253h63.872L775.5 197.918m0-25.918l54.5 94H721l54.5-94z" fill="#303030"/></g></g></svg>