<svg xmlns="http://www.w3.org/2000/svg" width="841.308" height="65.116"><g fill="#4bba83"><path d="M309.045 0l15.263 7.117-27.045 58L282 57.998zM356.045 0l15.263 7.117-27.045 58L329 57.998zM403.045 0l15.263 7.117-27.045 58L376 57.998zM450.045 0l15.263 7.117-27.045 58L423 57.998zM497.045 0l15.263 7.117-27.045 58L470 57.998zM544.045 0l15.263 7.117-27.045 58L517 57.998zM591.045 0l15.263 7.117-27.045 58L564 57.998zM638.045 0l15.263 7.117-27.045 58L611 57.998zM685.045 0l15.263 7.117-27.045 58L658 57.998zM732.045 0l15.263 7.117-27.045 58L705 57.998zM779.045 0l15.263 7.117-27.045 58L752 57.998zM826.045 0l15.263 7.117-27.045 58L799 57.998zM27.045 0l15.263 7.117-27.045 58L0 57.998zM74.045 0l15.263 7.117-27.045 58L47 57.998zM121.045 0l15.263 7.117-27.045 58L94 57.998zM168.045 0l15.263 7.117-27.045 58L141 57.998zM215.045 0l15.263 7.117-27.045 58L188 57.998zM262.045 0l15.263 7.117-27.045 58L235 57.998z"/></g></svg>